<svg xmlns="http://www.w3.org/2000/svg" xmlns:xlink="http://www.w3.org/1999/xlink" width="500" zoomAndPan="magnify" viewBox="0 0 375 374.999991" height="500" preserveAspectRatio="xMidYMid meet" version="1.0"><defs><g/></defs><path fill="#000000" d="M 209.9375 158.746094 C 209.726562 158.957031 209.484375 159.144531 209.210938 159.300781 C 207.574219 160.230469 205.492188 159.65625 204.5625 158.019531 C 203.054688 155.367188 201.183594 152.914062 199.003906 150.734375 C 197.671875 149.402344 197.671875 147.246094 199.003906 145.914062 C 200.335938 144.582031 202.492188 144.582031 203.824219 145.914062 C 206.4375 148.527344 208.679688 151.464844 210.488281 154.652344 C 211.265625 156.015625 210.996094 157.6875 209.9375 158.746094 " fill-opacity="1" fill-rule="nonzero"/><path fill="#000000" d="M 192.890625 143.128906 C 191.910156 144.105469 190.394531 144.425781 189.0625 143.820312 C 181.105469 140.183594 171.800781 139.765625 163.535156 142.667969 C 161.757812 143.292969 159.8125 142.355469 159.1875 140.582031 C 158.5625 138.804688 159.5 136.859375 161.277344 136.234375 C 171.335938 132.703125 182.210938 133.191406 191.894531 137.617188 C 193.605469 138.398438 194.363281 140.421875 193.578125 142.132812 C 193.40625 142.515625 193.167969 142.851562 192.890625 143.128906 " fill-opacity="1" fill-rule="nonzero"/><path fill="#000000" d="M 220.328125 174.871094 C 220.328125 187.011719 215.597656 198.425781 207.011719 207.011719 C 198.425781 215.597656 187.011719 220.328125 174.871094 220.328125 C 162.726562 220.328125 151.3125 215.597656 142.726562 207.011719 C 134.140625 198.425781 129.410156 187.011719 129.410156 174.871094 C 129.410156 162.726562 134.140625 151.3125 142.726562 142.726562 C 151.3125 134.140625 162.726562 129.410156 174.871094 129.410156 C 187.011719 129.410156 198.425781 134.140625 207.011719 142.726562 C 215.597656 151.3125 220.328125 162.726562 220.328125 174.871094 Z M 134.691406 134.691406 C 112.5 156.878906 112.5 192.859375 134.691406 215.046875 C 155.980469 236.339844 189.960938 237.199219 212.277344 217.636719 L 214.433594 219.789062 C 213.757812 222.316406 214.40625 225.121094 216.386719 227.101562 L 248.820312 259.53125 C 251.777344 262.492188 256.574219 262.492188 259.535156 259.53125 C 262.492188 256.574219 262.492188 251.777344 259.535156 248.820312 L 227.101562 216.386719 C 225.121094 214.40625 222.316406 213.757812 219.789062 214.433594 L 217.636719 212.277344 C 237.199219 189.960938 236.339844 155.980469 215.046875 134.691406 C 192.859375 112.5 156.878906 112.5 134.691406 134.691406 " fill-opacity="1" fill-rule="nonzero"/><g fill="#000000" fill-opacity="1"><g transform="translate(133.416025, 261.16287)"><g><path d="M 28.238281 -21.515625 C 28.238281 -24.4375 25.851562 -26.890625 22.859375 -26.890625 L 1.34375 -26.890625 L 1.34375 0 L 22.859375 0 C 25.851562 0 28.238281 -2.453125 28.238281 -5.378906 L 28.238281 -10.757812 C 28.238281 -12.234375 27.027344 -13.445312 25.546875 -13.445312 C 27.027344 -13.445312 28.238281 -14.65625 28.238281 -16.136719 Z M 22.859375 -21.515625 L 22.859375 -16.136719 L 6.722656 -16.136719 L 6.722656 -21.515625 Z M 6.722656 -5.378906 L 6.722656 -10.757812 L 22.859375 -10.757812 L 22.859375 -5.378906 Z M 6.722656 -5.378906 "/></g></g></g><g fill="#000000" fill-opacity="1"><g transform="translate(162.9977, 261.16287)"><g><path d="M 28.238281 -26.890625 L 22.859375 -26.890625 L 22.859375 -24.203125 L 14.789062 -16.136719 L 6.722656 -24.203125 L 6.722656 -26.890625 L 1.34375 -26.890625 L 1.34375 -23.128906 C 1.34375 -22.386719 1.578125 -21.75 2.152344 -21.179688 L 9.882812 -13.445312 L 2.152344 -5.714844 C 1.613281 -5.175781 1.34375 -4.503906 1.34375 -3.765625 L 1.34375 0 L 6.722656 0 L 6.722656 -2.6875 L 14.789062 -10.757812 L 22.859375 -2.6875 L 22.859375 0 L 28.238281 0 L 28.238281 -3.765625 C 28.238281 -4.503906 27.96875 -5.175781 27.429688 -5.714844 L 19.699219 -13.445312 L 27.429688 -21.179688 C 28 -21.75 28.238281 -22.386719 28.238281 -23.128906 Z M 28.238281 -26.890625 "/></g></g></g><g fill="#000000" fill-opacity="1"><g transform="translate(192.579375, 261.16287)"><g><path d="M 22.859375 -26.890625 L 1.34375 -26.890625 L 1.34375 0 L 6.722656 0 L 6.722656 -10.757812 L 22.859375 -10.757812 C 25.816406 -10.757812 28.238281 -13.175781 28.238281 -16.136719 L 28.238281 -21.515625 C 28.238281 -24.472656 25.816406 -26.890625 22.859375 -26.890625 Z M 6.722656 -16.136719 L 6.722656 -21.515625 L 22.859375 -21.515625 L 22.859375 -16.136719 Z M 6.722656 -16.136719 "/></g></g></g></svg>